# xmcd
# 
# Track frame offsets:
#     150
#     19765
#     37630
#     52100
#     78862
#     95787
#     112535
#     129707
#     145220
#     164385
#     182317
#     202657
#     220460
#     242325
# 
# Disc length: 3478
# 
# Revision: 3
# Processed by: cddbd v1.5.2PL0 Copyright (c) Steve Scherf et al.
# Submitted via: BonkEnc v1.0
# 
DISCID=ab0d940e
DTITLE=Shaggy - The best of Shaggy Part 1
DYEAR=0
DGENRE=
TTITLE0=Boombastic [ Sting Remix ]
TTITLE1=In the Summertime - Shaggy feat. Rayvon
TTITLE2=Oh Carolina
TTITLE3=Luv Me Luv Me - Shaggy Feat. Janet Jackson
TTITLE4=Nice and Lovely
TTITLE5=The Train is coming
TTITLE6=Why you treat me so bad
TTITLE7=Big Up - Shaggy Feat. Rayvon
TTITLE8=Piece of my heart
TTITLE9=Sexy Body Girl
TTITLE10=Something Different
TTITLE11=That Girl
TTITLE12=Get Up, Stand Up
TTITLE13=Boombastic
EXTD=
EXTT0=
EXTT1=
EXTT2=
EXTT3=
EXTT4=
EXTT5=
EXTT6=
EXTT7=
EXTT8=
EXTT9=
EXTT10=
EXTT11=
EXTT12=
EXTT13=
PLAYORDER=
